# xmcd CD database file
#
# Track frame offsets:
#	150
#	13504
#	37012
#	55017
#	71997
#	89205
#	113833
#	132923
#	150587
#	171167
#
# Disc length: 2567 seconds
#
# Revision: 0
# Processed by: cddbd v1.5.1PL0 Copyright (c) Steve Scherf et al.
# Submitted via: CDex 1.51
#
DISCID=880a050a
DTITLE=ECD - FINAL JUNKY
DYEAR=2004
DGENRE=Hip-Hop
TTITLE0=MIZO
TTITLE1=ゆがんだ世界
TTITLE2=軽いハズミで
TTITLE3=ZERO
TTITLE4=思い出す力
TTITLE5=東京を戦場に
TTITLE6=関係ねーつ！
TTITLE7=問い直す
TTITLE8=CD
TTITLE9=HAIKU
EXTD=YEAR: 2004
EXTT0=
EXTT1=
EXTT2=
EXTT3=
EXTT4=
EXTT5=
EXTT6=
EXTT7=
EXTT8=
EXTT9=
PLAYORDER=
